Patient4_TMGait_0pt2_02_right_04_EMG.mot
version=1
nRows=13
nColumns=33
inDegrees=no
endheader
time	1LAddLong	2LGlutMax	3LGlutMed	4LIliopsoas	5LSemiMemb	6LBicFemLong	7LRecFem	8LVastMed	9LVastLat	10LGasMed	11LTibAnt	12lTibPost	13LPeroneusLong	14LSol	15LExtDigLong	16LFlexDigLong	17RAddLong	18RGlutMax	19RGlutMed	20RIliopsoas	21RSemiMemb	22RBicFemLong	23RRecFem	24RVastMed	25RVastLat	26RGasMed	27RTibAnt	28RTibPost	29RPeroneusLong	30RSol	31RExtDigLong	32RFlexDigLong
8.46	0.010071	-0.074158	0.038147	0.002136	-0.016785	-0.039063	-0.039215	0.02533	0.012054	0.014191	0.027771	0.002747	0.010376	-0.020599	0.17685	-0.002136	0.10544	-0.30121	-0.10712	-0.040131	-0.16068	-0.005646	0.005188	-0.08255	-0.016479	-0.011444	-0.029602	-0.002899	1.5132	-0.15961	0.000305	-0.007019
8.461	0.00885	-0.073395	0.050812	-0.003052	-0.10483	0.018311	-0.054169	-0.011292	0.023041	0.020294	0.068512	-0.003204	0.002747	0.012207	0.13702	-0.051422	0.10666	-0.27283	0.11246	0.024109	-0.064697	-0.045929	0.036621	-0.25314	-0.020905	-0.036926	0.10757	-0.005035	0.29968	-0.13718	-0.000305	-0.007172
8.462	0.005188	-0.066528	0.037994	0.002594	-0.060425	-0.039978	-0.0737	0.005951	0.033569	0.010529	0.062408	-0.003052	-0.012665	0.030823	0.090485	-0.02655	0.048676	-0.1503	-0.054321	0.007782	0.17105	0.17777	-0.010529	-0.21957	-0.024414	-0.015259	0.10742	-0.002899	-1.6537	-0.024109	-0.001373	-0.009155
8.463	0.011444	-0.056458	0.021362	0.001221	-0.010376	-0.14542	-0.084839	-0.008698	0.034027	0.018311	0.046539	0.001831	-0.004578	0.061493	0.048523	0.036316	0.042114	-0.091248	-0.16556	0.086823	-0.055847	0.010986	-0.005035	-0.13031	-0.042419	-0.005951	-0.046692	-0.009003	-0.90988	-0.11627	-0.002441	-0.01236
8.464	0.029449	-0.049286	-0.001221	0.008392	0.003967	-0.11185	-0.066528	-0.005951	0.021362	0.021057	0.035858	0.003357	-0.008392	0.037689	0.029297	0.06134	0.029144	-0.095367	-0.12405	0.10635	-0.25772	-0.13534	0.042725	-0.037231	-0.019989	-0.038452	0.015564	-0.003967	0.49072	0.04425	0.001984	-0.012207
8.465	0.009766	-0.053253	0.03067	-0.004425	0.071259	0.11841	-0.022125	0.005341	-0.002289	0.025482	0.036774	0.007782	0.000305	0.022736	0.029297	-0.098877	0.031433	-0.043945	-0.070953	0.087585	-0.067902	-0.30441	0.021667	-0.079651	-0.020599	-0.059509	0.019836	-0.010223	0.77805	-0.03479	-0.000153	-0.018005
8.466	-0.001831	-0.068207	0.029144	0.003357	0.11597	0.32959	-0.001984	0.004883	-0.022278	0.019989	0.005646	0.009766	-0.014496	-0.000916	0.036621	-0.052185	0.00885	-0.006409	0.0354	0.061951	-0.001984	-0.27618	0.09491	-0.085449	-0.017242	-0.046234	-0.025024	-0.011902	0.37552	-0.16892	-0.003204	-0.010376
8.467	-0.014496	-0.042725	0.00885	0.018921	0.00885	0.4808	-0.012207	0.006409	-0.012207	0.023193	-0.011444	0.003357	-0.001678	0.002441	0.050659	0.12497	-0.030823	-0.084991	0.076447	0.052643	0.069275	-0.12726	0.03479	0.027161	0.002747	-0.02182	-0.05661	-0.00885	0.69122	-0.11292	-0.003357	-0.015564
8.468	-0.021057	-0.024261	0.073547	0.006104	-0.031433	0.51239	-0.045624	0.006866	-0.007019	0.025635	-0.00824	-0.005035	0.007935	0.010986	0.058899	0.039825	-0.00824	-0.15457	0.26596	0.025177	-0.103	-0.012665	0.049438	0.018921	0.007935	0.024109	-0.011902	-0.009308	-0.10468	-0.103	-0.002899	-0.011292
8.469	-0.027618	-0.043793	0.071869	0.022278	0.053253	0.21668	-0.047302	0.002289	0.003815	0.02533	-0.006561	0.002899	0.002899	0.040131	0.027008	0.043182	0.01709	-0.13351	-0.16815	0.027161	0.25818	0.068207	0.024109	0.076141	0.01297	-0.003967	0.029144	-0.009613	-0.94544	-0.016937	-0.003357	-0.01297
8.47	-0.029755	-0.064545	0.051117	0.007019	-0.063324	-0.38742	-0.045471	0.006866	-0.012817	0.029297	-0.005798	0.001526	0.002594	0.019531	-0.01709	0.039368	0.015106	-0.058441	-0.23865	-0.023193	0.2919	-0.066528	0.00061	0.011139	0.020142	-0.082245	0.07309	-0.010071	-0.87021	0.086975	0.000916	-0.014038
8.471	-0.017853	-0.048981	0.009003	0.012054	-0.21454	-0.51727	-0.034332	0.002747	-0.013428	0.013275	-0.006104	0.003815	0.02121	0.020752	-0.038605	-0.003815	0.014496	-0.004425	0.053406	-0.096588	-0.07782	-0.054321	0.031738	0.030212	-0.001373	-0.072327	0.10941	-0.015564	-0.48386	0.10162	-0.003662	-0.019989
8.472	0.003815	-0.08667	0.032043	0.006104	-0.17441	-0.78339	-0.048065	0.001831	-0.000458	-0.001984	-0.001984	0.00351	0.012665	0.00412	-0.039063	-0.006409	-0.033264	-0.047913	0.043945	-0.10681	-0.18326	0.22247	0.006866	-0.030365	-0.015717	-0.047607	0.06897	-0.011749	-0.50339	-0.01297	-0.00061	-0.013733
